HIERARCHY
ROOT hip
{
  OFFSET 0 0 0
  CHANNELS 6 Xposition Yposition Zposition Zrotation Yrotation Xrotation
  JOINT abdomen
  {
    OFFSET 0 20.6881 -0.73152
    CHANNELS 3 Zrotation Xrotation Yrotation
    JOINT chest
    {
      OFFSET 0 11.7043 -0.48768
      CHANNELS 3 Zrotation Xrotation Yrotation
      JOINT neck
      {
        OFFSET 0 22.1894 -2.19456
        CHANNELS 3 Zrotation Xrotation Yrotation
        JOINT head
        {
          OFFSET -0.24384 7.07133 1.2192
          CHANNELS 3 Zrotation Xrotation Yrotation
          JOINT leftEye
          {
            OFFSET 4.14528 8.04674 8.04672
            CHANNELS 3 Zrotation Xrotation Yrotation
            End Site
            {
              OFFSET 1 0 0
            }
          }
          JOINT rightEye
          {
            OFFSET -3.6576 8.04674 8.04672
            CHANNELS 3 Zrotation Xrotation Yrotation
            End Site
            {
              OFFSET 1 0 0
            }
          }
        }
      }
      JOINT rCollar
      {
        OFFSET -2.68224 19.2634 -4.8768
        CHANNELS 3 Zrotation Xrotation Yrotation
        JOINT rShldr
        {
          OFFSET -8.77824 -1.95073 1.46304
          CHANNELS 3 Zrotation Xrotation Yrotation
          JOINT rForeArm
          {
            OFFSET -28.1742 -1.7115 0.48768
            CHANNELS 3 Zrotation Xrotation Yrotation
            JOINT rHand
            {
              OFFSET -22.5879 0.773209 7.07136
              CHANNELS 3 Zrotation Xrotation Yrotation
              JOINT rThumb1
              {
                OFFSET -1.2192 -0.487915 3.41376
                CHANNELS 3 Zrotation Xrotation Yrotation
                JOINT rThumb2
                {
                  OFFSET -3.37035 -0.52449 3.41376
                  CHANNELS 3 Zrotation Xrotation Yrotation
                  End Site
                  {
                    OFFSET -1.78271 -1.18214 1.43049
                  }
                }
              }
              JOINT rIndex1
              {
                OFFSET -7.75947 0.938293 5.60832
                CHANNELS 3 Zrotation Xrotation Yrotation
                JOINT rIndex2
                {
                  OFFSET -2.54057 -0.884171 1.56538
                  CHANNELS 3 Zrotation Xrotation Yrotation
                  End Site
                  {
                    OFFSET -1.62519 -0.234802 1.16502
                  }
                }
              }
              JOINT rMid1
              {
                OFFSET -8.24714 1.18213 3.41376
                CHANNELS 3 Zrotation Xrotation Yrotation
                JOINT rMid2
                {
                  OFFSET -3.10165 -0.590103 1.0647
                  CHANNELS 3 Zrotation Xrotation Yrotation
                  End Site
                  {
                    OFFSET -2.48547 -0.328903 0.83742
                  }
                }
              }
              JOINT rRing1
              {
                OFFSET -8.82822 0.546677 1.51678
                CHANNELS 3 Zrotation Xrotation Yrotation
                JOINT rRing2
                {
                  OFFSET -2.60934 -0.819778 -0.0198488
                  CHANNELS 3 Zrotation Xrotation Yrotation
                  End Site
                  {
                    OFFSET -2.33842 -0.294052 0.168128
                  }
                }
              }
              JOINT rPinky1
              {
                OFFSET -8.27202 -0.0477905 -0.4584
                CHANNELS 3 Zrotation Xrotation Yrotation
                JOINT rPinky2
                {
                  OFFSET -1.82734 -0.647385 -0.700984
                  CHANNELS 3 Zrotation Xrotation Yrotation
                  End Site
                  {
                    OFFSET -1.69225 -0.51767 -0.607171
                  }
                }
              }
            }
          }
        }
      }
      JOINT lCollar
      {
        OFFSET 2.68224 19.2634 -4.8768
        CHANNELS 3 Zrotation Xrotation Yrotation
        JOINT lShldr
        {
          OFFSET 8.77824 -1.95073 1.46304
          CHANNELS 3 Zrotation Xrotation Yrotation
          JOINT lForeArm
          {
            OFFSET 28.1742 -1.7115 0.48768
            CHANNELS 3 Zrotation Xrotation Yrotation
            JOINT lHand
            {
              OFFSET 22.5879 0.773209 7.07136
              CHANNELS 3 Zrotation Xrotation Yrotation
              JOINT lThumb1
              {
                OFFSET 1.2192 -0.487915 3.41376
                CHANNELS 3 Zrotation Xrotation Yrotation
                JOINT lThumb2
                {
                  OFFSET 3.37035 -0.52449 3.41376
                  CHANNELS 3 Zrotation Xrotation Yrotation
                  End Site
                  {
                    OFFSET 1.78271 -1.18214 1.43049
                  }
                }
              }
              JOINT lIndex1
              {
                OFFSET 7.75947 0.938293 5.60832
                CHANNELS 3 Zrotation Xrotation Yrotation
                JOINT lIndex2
                {
                  OFFSET 2.54057 -0.884171 1.56538
                  CHANNELS 3 Zrotation Xrotation Yrotation
                  End Site
                  {
                    OFFSET 1.62519 -0.234802 1.16502
                  }
                }
              }
              JOINT lMid1
              {
                OFFSET 8.24714 1.18213 3.41376
                CHANNELS 3 Zrotation Xrotation Yrotation
                JOINT lMid2
                {
                  OFFSET 3.10165 -0.590103 1.0647
                  CHANNELS 3 Zrotation Xrotation Yrotation
                  End Site
                  {
                    OFFSET 2.48547 -0.328903 0.83742
                  }
                }
              }
              JOINT lRing1
              {
                OFFSET 8.82822 0.546677 1.51678
                CHANNELS 3 Zrotation Xrotation Yrotation
                JOINT lRing2
                {
                  OFFSET 2.60934 -0.819778 -0.0198488
                  CHANNELS 3 Zrotation Xrotation Yrotation
                  End Site
                  {
                    OFFSET 2.33842 -0.294052 0.168128
                  }
                }
              }
              JOINT lPinky1
              {
                OFFSET 8.27202 -0.0477905 -0.4584
                CHANNELS 3 Zrotation Xrotation Yrotation
                JOINT lPinky2
                {
                  OFFSET 1.82734 -0.647385 -0.700984
                  CHANNELS 3 Zrotation Xrotation Yrotation
                  End Site
                  {
                    OFFSET 1.69225 -0.51767 -0.607171
                  }
                }
              }
            }
          }
        }
      }
    }
  }
  JOINT rButtock
  {
    OFFSET -8.77824 4.35084 1.2192
    CHANNELS 3 Zrotation Xrotation Yrotation
    JOINT rThigh
    {
      OFFSET 0 -1.70687 -2.19456
      CHANNELS 3 Zrotation Xrotation Yrotation
      JOINT rShin
      {
        OFFSET 0 -36.8199 0.73152
        CHANNELS 3 Zrotation Xrotation Yrotation
        JOINT rFoot
        {
          OFFSET 0.73152 -45.1104 -5.12064
          CHANNELS 3 Zrotation Xrotation Yrotation
          End Site
          {
            OFFSET -1.1221 -3.69964 12.103
          }
        }
      }
    }
  }
  JOINT lButtock
  {
    OFFSET 8.77824 4.35084 1.2192
    CHANNELS 3 Zrotation Xrotation Yrotation
    JOINT lThigh
    {
      OFFSET 0 -1.70687 -2.19456
      CHANNELS 3 Zrotation Xrotation Yrotation
      JOINT lShin
      {
        OFFSET 0 -36.8199 0.73152
        CHANNELS 3 Zrotation Xrotation Yrotation
        JOINT lFoot
        {
          OFFSET -0.73152 -45.1104 -5.12064
          CHANNELS 3 Zrotation Xrotation Yrotation
          End Site
          {
            OFFSET 1.1221 -3.69964 12.103
          }
        }
      }
    }
  }
}
MOTION
Frames:	4
Frame Time:	0.03333
-0.1256000017747283 66.37730002403259 0.4788000136613846 -10.372500297178846 -34.07540054274883 365.9350072745469 7.815400415331132 19.473900682271026 6.796150068510347 0.8159469914110055 -10.879799791176849 2.145360070423478 1.213999957512182 10.302500249696322 5.727750107308973 -0.7355730071571448 -23.803699323567386 11.11460035050073 -0.0 0.0 0.0 -0.0 0.0 0.0 -1.0364199910672464e-13 -2.2024499149119543e-13 4.931350155961257e-13 87.78510193023726 50.982700550036654 -36.06170151565858 -26.124700056375268 -46.02780128835343 95.60540215252423 -9.497239729572037 -62.42609852321898 -15.61240030103825 -2.4664100287691117e-09 5.316390181290701e-09 -1.4196999689906837e-10 -4.230070139559496e-09 8.668469791309534e-09 -3.677459945292762e-10 -2.466400089535732e-09 5.316379844487987e-09 -1.4197999825265655e-10 7.730910121524428 5.474879855648998 0.41731399283890674 -2.466400089535732e-09 5.316369905254607e-09 -1.4196999689906837e-10 2.90554006136521 0.9651829962377875 0.10290200252939893 -2.466400089535732e-09 5.316369905254607e-09 -1.4197599771122128e-10 10.278599710243157 0.7318009818271524 0.025912300303053633 -2.4664100287691117e-09 5.316379844487987e-09 -1.4196399608691546e-10 2.221669932038622 -0.7334870246959406 -0.20891999872313852 -1.0389600038944115e-13 -2.202629966454133e-13 4.928369841889775e-13 -1.6727299763222245 47.15199919931876 -69.3582009458375 28.36000069811971 -37.66210021555719 -79.82560245266544 0.1667729957684658 -11.560599750471516 1.6473800493828397 1.9061099925130815e-11 8.773530271116972e-10 1.4613499785946181e-09 2.0048199358171e-11 1.5191999943800862e-09 2.5186200265733407e-09 1.9059500329758788e-11 8.773530271116972e-10 1.4613600172203314e-09 -7.730910121524428 5.474879855648998 -0.41731399283890674 1.905889931674037e-11 8.773530271116972e-10 1.4613499785946181e-09 -2.90554006136521 0.9651829962377875 -0.10290200252939893 1.9051600192227243e-11 8.773530271116972e-10 1.4613499785946181e-09 -10.278599710243157 0.7318009818271524 -0.025912300303053633 1.9061099925130815e-11 8.773540210350352e-10 1.4613499785946181e-09 -2.221669932038622 -0.7334870246959406 0.20891999872313852 -2.0321699793705798e-16 0.0 -3.882510030490358e-19 -13.308300017557915 -14.408099639034308 -1.5654799980971572 -0.685399024483613 55.9997989293966 1.935779984609868 -11.956499712880257 -19.863800323493912 -23.054099722536826 2.0321699793705798e-16 0.0 3.882510030490358e-19 53.89559864612867 -53.371101589574224 39.1380016423594 1.3653900332484568 62.10839910416501 -1.161530017421321 0.9523509917780376 -0.05620870159918276 5.177560013531051
-0.21200000192038715 66.56050086021423 0.9337000083178282 -10.205700247457964 -32.02690045216236 365.7949883965616 7.594039960746542 18.68180022913006 7.1898003373612145 1.0263900289375643 -10.499599872349027 2.251559907063656 0.986006962356687 10.59259972808792 5.319219844464408 -0.1685260065076319 -24.405799281924228 10.455699685232418 -0.0 0.0 0.0 -0.0 0.0 0.0 1.5493400019211077e-13 1.5540299563435614e-13 -1.3345899553995682e-13 92.1823025858106 48.34629875683051 -41.206698602321595 -26.382099150341784 -45.50169913734403 94.48659667590863 -15.392399907872138 -69.56809948922115 -22.064000623093655 -8.289330080836001e-10 4.5551700393636205e-10 -7.410430012048774e-10 -1.3856100384722542e-09 5.409179782960052e-10 -1.307159967584282e-09 -8.289240130773916e-10 4.555129785468433e-10 -7.410570155239426e-10 7.730910121524428 5.474879855648998 0.41731399283890674 -8.289340020069381e-10 4.555109907001674e-10 -7.410420072815394e-10 2.90554006136521 0.9651829962377875 0.10290200252939893 -8.289219755345488e-10 4.554949885344263e-10 -7.410469768982292e-10 10.278599710243157 0.7318009818271524 0.025912300303053633 -8.28936983776952e-10 4.555179978597e-10 -7.410299808091501e-10 2.221669932038622 -0.7334870246959406 -0.20891999872313852 1.5467700209464236e-13 1.5539500008406666e-13 -1.3373500581846255e-13 -9.121590424278738 47.4659010331942 -62.82379994802131 28.444000072079817 -33.137700947070705 -71.43629966119221 0.06495790045159802 -7.78602974812643 1.0996399658045428 -8.724239624940992e-10 1.3105299640539603e-09 2.01982993622216e-09 -1.5180700029371625e-09 2.268579925151416e-09 3.4899101398480604e-09 -8.724300254264607e-10 1.3105200248205807e-09 2.0198400742402073e-09 -7.730910121524428 5.474879855648998 -0.41731399283890674 -8.724219746474232e-10 1.3105400026796736e-09 2.01982993622216e-09 -2.90554006136521 0.9651829962377875 -0.10290200252939893 -8.724399646598403e-10 1.3105400026796736e-09 2.01982993622216e-09 -10.278599710243157 0.7318009818271524 -0.025912300303053633 -8.724239624940992e-10 1.3105299640539603e-09 2.0198199969887803e-09 -2.221669932038622 -0.7334870246959406 0.20891999872313852 -2.0321699793705798e-16 0.0 -3.882510030490358e-19 -13.171499866219023 -12.529900070118352 -2.916909978455754 -0.6236420014730916 54.63990143545789 1.8874399610893373 -12.023100033703406 -20.07740082940772 -23.067599591431357 2.0321699793705798e-16 0.0 3.882510030490358e-19 53.833201452966016 -53.86709968181679 39.92019832120384 1.3336699944126829 61.672202733200486 -1.118919989005902 0.746372976977963 -0.39680600301039964 3.3244799593916974
-0.28650000458583236 66.81119799613953 1.398400031030178 -10.45750029385236 -30.180700319507913 365.8309971538659 7.790699889971426 18.016399785092833 7.420740132256747 1.2050299981412511 -10.152699687045958 2.3301800801655568 0.7016120259433721 10.950799607599132 4.905540045872477 0.4511479752227996 -24.88419939177026 9.80176029862247 -0.0 0.0 0.0 -0.0 0.0 0.0 3.8889599517969813e-13 4.786699852985242e-13 -7.282480179726535e-13 95.40169859071777 46.04119870441041 -45.17110090604249 -26.670099199337248 -44.844498335405405 93.14300284351874 -23.306799646354374 -74.46449818066321 -30.368298295251485 6.961979753349121e-10 -4.256040163672316e-09 -1.2329799901408422e-09 1.2597200066635779e-09 -7.329089711486355e-09 -2.0716099627903886e-09 6.962059764177827e-10 -4.256040163672316e-09 -1.2329999679999352e-09 7.730910121524428 5.474879855648998 0.41731399283890674 6.961939996415603e-10 -4.256040163672316e-09 -1.2329799901408422e-09 2.90554006136521 0.9651829962377875 0.10290200252939893 6.962080139606255e-10 -4.2560600421390755e-09 -1.2329799901408422e-09 10.278599710243157 0.7318009818271524 0.025912300303053633 6.961930057182223e-10 -4.256029826869601e-09 -1.2329600122817493e-09 2.221669932038622 -0.7334870246959406 -0.20891999872313852 3.886760022846317e-13 4.786749840340618e-13 -7.28496013493013e-13 -15.386300548943316 46.63449967156898 -58.49259941039781 27.49309942828335 -28.152200730358533 -64.30649741304768 0.018767100340580448 -3.9079298727764074 0.5500859867539317 -1.9406899831453114e-09 2.241410036785014e-09 2.2121000326873222e-09 -3.3586800561215404e-09 3.879920091691831e-09 3.828490124923231e-09 -1.9407100603967384e-09 2.2414000975516345e-09 2.2121300491721286e-09 -7.730910121524428 5.474879855648998 -0.41731399283890674 -1.9406899831453114e-09 2.2414199760183936e-09 2.2121000326873222e-09 -2.90554006136521 0.9651829962377875 -0.10290200252939893 -1.940719999630118e-09 2.2414400532698202e-09 2.2121099719207016e-09 -10.278599710243157 0.7318009818271524 -0.025912300303053633 -1.9406899831453114e-09 2.2414199760183936e-09 2.2120900934539424e-09 -2.221669932038622 -0.7334870246959406 0.20891999872313852 -2.0321699793705798e-16 0.0 -3.882510030490358e-19 -12.969800111160316 -10.635500146264771 -4.511310064715803 -0.562677013602027 53.140698818302184 1.837270087201478 -11.929799649641032 -20.31729927117337 -22.78820045814823 2.0321699793705798e-16 0.0 3.882510030490358e-19 53.933598403576035 -54.26020097421312 40.57010106601431 1.3116900187767588 61.389200675130176 -1.097589948558187 0.5921960239777644 -0.653805984477719 1.9744900817309152
-0.39470000192523 67.0274019241333 1.835400052368641 -11.032000311546827 -28.56820023194733 365.837991267576 8.645140333440743 17.690299233359745 7.304180392749541 1.2237700095113564 -9.912130179194353 2.330290003522512 0.5099630009700439 11.221000183617543 4.55585015518028 0.9771239811759681 -25.102299284799816 9.241969947079273 -0.0 0.0 0.0 -0.0 0.0 0.0 2.9841698922442145e-13 2.5871300347769543e-13 -5.956680112518495e-13 97.97510213411431 44.92550096386717 -48.198001689571186 -26.95239945547034 -44.15549958778578 91.73540330841666 -20.057099799647148 -72.78959919239269 -26.98120065565299 -2.1797099098614672e-10 -1.775880000661235e-09 -8.667070148465023e-10 -3.290930116624515e-10 -3.1500299042621735e-09 -1.5013200092765702e-09 -2.1796500259803553e-10 -1.775880000661235e-09 -8.667299744756091e-10 7.730910121524428 5.474879855648998 0.41731399283890674 -2.1797200975756813e-10 -1.7758899398946146e-09 -8.667099966165161e-10 2.90554006136521 0.9651829962377875 0.10290200252939893 -2.179659965213735e-10 -1.7758899398946146e-09 -8.667090026931782e-10 10.278599710243157 0.7318009818271524 0.025912300303053633 -2.1797300368090608e-10 -1.7758700614278554e-09 -8.666930005274371e-10 2.221669932038622 -0.7334870246959406 -0.20891999872313852 2.9829500551788063e-13 2.587230009487706e-13 -5.958569925740177e-13 -19.832900547688773 45.37940118516037 -55.66589830163135 26.441200777229906 -24.737500588776726 -59.06470288546725 0.006741279983936887 -1.371509989466494 0.19316699449572391 -2.705140077743752e-09 4.960069857340997e-09 2.3604299710893956e-09 -4.67785009636003e-09 8.582609922544756e-09 4.088480194096779e-09 -2.7051500169771317e-09 4.960069857340997e-09 2.3604599875742015e-09 -7.730910121524428 5.474879855648998 -0.41731399283890674 -2.705140077743752e-09 4.960069857340997e-09 2.3604299710893956e-09 -2.90554006136521 0.9651829962377875 -0.10290200252939893 -2.705159956210511e-09 4.960090133377092e-09 2.360439910322775e-09 -10.278599710243157 0.7318009818271524 -0.025912300303053633 -2.705140077743752e-09 4.960069857340997e-09 2.360420031856016e-09 -2.221669932038622 -0.7334870246959406 0.20891999872313852 -2.0321699793705798e-16 0.0 -3.882510030490358e-19 -12.360500279644635 -8.619490411786407 -5.8940101451986 -0.500492997046674 51.524300400272814 1.7973399475399372 -11.863200182591529 -20.223800811625065 -22.815399978970515 2.0321699793705798e-16 0.0 3.882510030490358e-19 54.44020036450505 -54.39599879529131 40.949600036678554 1.2995399660169522 61.251401608625166 -1.0949400486036336 0.573837009097299 -0.1303640053870517 1.859840020426962
